<svg width="82" height="15" viewBox="0 0 82 15" fill="none" xmlns="http://www.w3.org/2000/svg">
<path d="M1 6.36401C0.447715 6.36401 0 6.81173 0 7.36401C0 7.9163 0.447715 8.36401 1 8.36401V7.36401V6.36401ZM81.7071 8.07112C82.0976 7.6806 82.0976 7.04743 81.7071 6.65691L75.3431 0.292946C74.9526 -0.0975785 74.3195 -0.0975785 73.9289 0.292946C73.5384 0.68347 73.5384 1.31664 73.9289 1.70716L79.5858 7.36401L73.9289 13.0209C73.5384 13.4114 73.5384 14.0446 73.9289 14.4351C74.3195 14.8256 74.9526 14.8256 75.3431 14.4351L81.7071 8.07112ZM1 7.36401V8.36401H81V7.36401V6.36401H1V7.36401Z" fill="#F2F2F2"/>
</svg>
