<svg width="18" height="18" viewBox="0 0 18 18" fill="none" xmlns="http://www.w3.org/2000/svg">
<path d="M14.9022 6.05234L13.0492 12.9678C13.0106 13.112 12.9162 13.235 12.787 13.3096C12.6577 13.3842 12.5041 13.4044 12.3599 13.3658C12.2157 13.3272 12.0928 13.2329 12.0181 13.1036C11.9435 12.9743 11.9233 12.8207 11.9619 12.6765L13.464 7.07268L3.92275 12.5813C3.79355 12.6559 3.64001 12.6761 3.49591 12.6375C3.35181 12.5989 3.22895 12.5046 3.15436 12.3754C3.07977 12.2462 3.05955 12.0927 3.09816 11.9486C3.13678 11.8045 3.23105 11.6816 3.36025 11.607L12.9015 6.0984L7.29739 4.59731C7.15321 4.55867 7.03028 4.46435 6.95565 4.33508C6.88101 4.20581 6.86079 4.05218 6.89942 3.908C6.93806 3.76382 7.03238 3.64089 7.16165 3.56626C7.29092 3.49163 7.44454 3.4714 7.58872 3.51003L14.5042 5.36304C14.5756 5.38213 14.6426 5.41511 14.7012 5.4601C14.7599 5.50508 14.8091 5.56118 14.8461 5.6252C14.883 5.68922 14.907 5.75989 14.9167 5.83319C14.9263 5.90648 14.9214 5.98095 14.9022 6.05234Z" fill="currentColor"/>
</svg>
