<?xml version="1.0" encoding="UTF-8"?>
<svg id="Layer_1" data-name="Layer 1" xmlns="http://www.w3.org/2000/svg" xmlns:xlink="http://www.w3.org/1999/xlink" viewBox="0 0 734.81 531.76">
  <defs>
    <style>
      .cls-1 {
        fill: none;
      }

      .cls-2 {
        fill: #77787b;
      }

      .cls-3 {
        fill: #58595b;
      }

      .cls-4 {
        fill: #95171a;
      }

      .cls-5 {
        fill: #5e0a0b;
      }

      .cls-6 {
        fill: #323031;
      }

      .cls-7 {
        fill: #d34d2a;
      }

      .cls-8 {
        fill: #ae1e23;
      }

      .cls-9 {
        fill: #fff;
      }

      .cls-10 {
        fill: #404041;
      }

      .cls-11 {
        fill: #bd2d26;
      }

      .cls-12 {
        fill: #8f181b;
      }

      .cls-13 {
        clip-path: url(#clippath);
      }
    </style>
    <clipPath id="clippath">
      <path class="cls-1" d="M526.29,324.11l-6.94,19-43.06.43,28.36-99.99,22.08-.22-22.92,81.01,22.49-.22ZM559.11,300.61l17.97-.18,5.03-17.74-17.97.18,6.23-22.01,18.38-.18,5.17-18.02-39.22.39-28.36,99.99,38.54-.38,6.67-18.99-19.06.19,6.63-23.25ZM630.47,290.98c-.2-1.73-.74-3.15-1.62-4.24-.88-1.09-2.05-1.9-3.52-2.43-1.47-.53-3.12-.79-4.95-.77l-11.11.11,5.7-20.36c.35-1.1.87-1.86,1.55-2.28.68-.42,1.39-.63,2.12-.64l18.1-.18,5.17-18.02-31.95.32c-2.47.02-4.82.58-7.05,1.65-2.23,1.07-3.92,3.35-5.08,6.84l-11,38.79c-.97,3.67-.85,6.59.36,8.77,1.21,2.18,4.01,3.25,8.4,3.21l10.97-.11c.64,0,1.01.11,1.1.33.09.23.05.57-.13,1.03l-4.63,16.92c-.45,1.29-.94,2.18-1.48,2.69-.54.51-1.78.77-3.7.79l-17.28.17-5.43,18.98,33.87-.34c2.1-.02,4.13-.54,6.09-1.57,1.95-1.02,3.2-2.55,3.73-4.56l11-38.79c.71-2.47.96-4.58.76-6.32ZM666.58,260.52c.68-.42,1.39-.63,2.12-.64l18.1-.18,5.17-18.02-31.95.32c-2.47.02-4.82.58-7.05,1.65-2.23,1.07-3.92,3.35-5.08,6.84l-11,38.79c-.97,3.67-.85,6.59.36,8.77,1.21,2.18,4.01,3.25,8.4,3.21l10.97-.11c.64,0,1.01.11,1.1.33.09.23.05.57-.13,1.03l-4.63,16.92c-.45,1.29-.94,2.18-1.48,2.69-.54.51-1.78.77-3.7.79l-17.28.17-5.43,18.98,33.87-.34c2.1-.02,4.13-.54,6.09-1.57,1.95-1.02,3.2-2.55,3.73-4.56l11-38.79c.71-2.47.96-4.58.76-6.32-.2-1.73-.74-3.15-1.62-4.24-.88-1.09-2.05-1.9-3.52-2.43-1.47-.53-3.12-.79-4.95-.77l-11.11.11,5.7-20.36c.35-1.1.87-1.86,1.55-2.28Z"/>
    </clipPath>
  </defs>
  <g>
    <g>
      <polygon class="cls-7" points="152.4 481.12 380.3 0 658.84 531.76 380.3 354.51 152.4 481.12"/>
      <polygon class="cls-7" points="266.35 240.56 228.36 177.25 76.43 430.48 199.75 381.15 266.35 240.56"/>
    </g>
    <g>
      <polygon class="cls-8" points="506.91 379.83 658.84 531.76 509.57 246.79 506.91 379.83"/>
      <polygon class="cls-11" points="228.36 253.22 266.35 240.56 228.36 177.25 228.36 253.22"/>
    </g>
    <g>
      <polygon class="cls-8" points="152.4 481.12 380.3 354.51 380.3 0 152.4 481.12"/>
      <polygon class="cls-8" points="228.36 253.22 76.43 430.48 199.75 381.15 266.35 240.56 228.36 253.22"/>
      <polygon class="cls-8" points="447.92 129.1 374.97 292.84 509.57 246.79 447.92 129.1"/>
    </g>
    <g>
      <polygon class="cls-12" points="152.4 481.12 370.96 294.85 266.35 240.56 152.4 481.12"/>
      <polygon class="cls-12" points="506.91 379.83 658.84 531.76 568.5 359.3 506.91 379.83"/>
      <g>
        <polygon class="cls-12" points="506.91 379.83 380.3 354.51 658.84 531.76 506.91 379.83"/>
        <polygon class="cls-12" points="622.51 462.4 658.84 531.76 622.51 462.4 622.51 462.4"/>
      </g>
      <polygon class="cls-12" points="509.57 246.79 568.5 359.3 568.5 359.3 734.81 455.8 506.91 151.93 509.57 246.79 509.57 246.79"/>
    </g>
    <g>
      <polygon class="cls-4" points="182.29 418.02 152.4 481.12 182.29 418.02 182.29 418.02"/>
      <polygon class="cls-5" points="152.4 481.12 258.53 421.33 202.31 379.17 152.4 481.12"/>
    </g>
    <g>
      <polygon class="cls-10" points="186.73 301.89 366.94 254.67 311.03 343.69 186.73 301.89"/>
      <polygon class="cls-2" points="43.94 252.88 151.96 167.66 205.7 236.59 43.94 252.88"/>
      <polygon class="cls-6" points="0 267.7 216.58 245.44 116.71 360.52 0 267.7"/>
      <polygon class="cls-3" points="75.99 401.23 123.22 232.41 142.22 379.52 75.99 401.23"/>
      <polygon class="cls-10" points="131.9 230.79 148.73 380.6 246.44 395.26 131.9 230.79"/>
      <polygon class="cls-6" points="183.47 292.67 272.49 196.59 331.66 255.21 183.47 292.67"/>
      <polygon class="cls-2" points="172.07 326.86 292.58 294.84 206.27 356.72 172.07 326.86"/>
    </g>
  </g>
  <g>
    <g class="cls-13">
      <path class="cls-9" d="M494.58,135.24l-167.82,194.5-12.01-2.33-17.72-3.43-36.42-7.05,167.82-194.5,36.42,7.05,17.72,3.43,12.01,2.33ZM511.98,138.63l-28.17-5.46-167.82,194.5,28.17,5.46,167.82-194.5ZM529.37,142.01l-26.6-5.15-167.82,194.5,26.6,5.15,167.82-194.5ZM546.77,145.39l-25.04-4.85-167.82,194.5,25.04,4.85,167.82-194.5ZM564.17,148.78l-23.47-4.55-167.82,194.5,23.47,4.55,167.82-194.5ZM622.61,162.16l-17.95-3.48-167.82,194.5,17.95,3.48,167.82-194.5ZM602.48,157.75l-19.76-3.83-167.82,194.5,19.76,3.83,167.82-194.5ZM578.27,153.32l-19.76-3.83-167.82,194.5,19.76,3.83,167.82-194.5ZM641.5,165.34l-16.07-3.11-167.82,194.5,16.07,3.11,167.82-194.5ZM659.23,168.87l-15.65-3.03-167.82,194.5,15.65,3.03,167.82-194.5ZM676.29,171.41l-14.08-2.73-167.82,194.5,14.08,2.73,167.82-194.5ZM692.97,174.56l-12.52-2.42-167.82,194.5,12.52,2.42,167.82-194.5ZM709.02,177.67l-10.95-2.12-167.82,194.5,10.95,2.12,167.82-194.5ZM722.32,180.28l-9.39-1.82-167.82,194.5,9.39,1.82,167.82-194.5ZM746.65,184.67l-7.82-1.52-167.82,194.5,7.82,1.52,167.82-194.5ZM734.96,181.69l-7.82-1.52-167.82,194.5,7.82,1.52,167.82-194.5ZM758.31,186.89l-6.26-1.21-167.82,194.5,6.26,1.21,167.82-194.5ZM779.96,191.34l-4.69-.91-167.82,194.5,4.69.91,167.82-194.5ZM803.71,195.05l-3.13-.61-167.82,194.5,3.13.61,167.82-194.5ZM769.61,189.25l-6.26-1.21-167.82,194.5,6.26,1.21,167.82-194.5ZM792.3,193.13l-4.69-.91-167.82,194.5,4.69.91,167.82-194.5ZM814.91,197.22l-3.13-.61-167.82,194.5,3.13.61,167.82-194.5ZM824.53,199.1l-1.56-.3-167.82,194.5,1.56.3,167.82-194.5ZM841.86,202.43l-1.41-.27-167.82,194.5,1.41.27,167.82-194.5ZM857.97,204.92l-.78-.15-167.82,194.5.78.15,167.82-194.5ZM871.75,207.17l-.31-.06-167.82,194.5.31.06,167.82-194.5ZM883.08,209.19l-.16-.03-167.82,194.5.16.03,167.82-194.5ZM834.16,200.96l-1.56-.3-167.82,194.5,1.56.3,167.82-194.5ZM849.46,204.22l-1.41-.27-167.82,194.5,1.41.27,167.82-194.5ZM864.95,206.59l-.78-.15-167.82,194.5.78.15,167.82-194.5ZM875.65,209.03l-.31-.06-167.82,194.5.31.06,167.82-194.5ZM890.58,211.1l-.16-.03-167.82,194.5.16.03,167.82-194.5Z"/>
    </g>
    <path class="cls-9" d="M211.55,367.43h-20.71l36.76-124.67h37.72c4.48,0,7.5,1.28,9.05,3.84,1.55,2.56,1.83,5.49.82,8.78l-10.01,33.88c-.46,1.46-1.4,2.81-2.81,4.05-1.42,1.23-3.41,1.85-5.97,1.85,1.55.27,2.88,1.28,3.98,3.02,1.1,1.74,1.1,4.39,0,7.96l-10.7,36.34h-20.71l11.52-39.09c.27-.82.3-1.6.07-2.33-.23-.73-.98-1.1-2.26-1.1h-6.86l-19.89,67.48ZM242.82,285.27c1.01,0,1.94-.25,2.81-.75.87-.5,1.53-1.53,1.99-3.09l5.49-18.51c.82-2.74-.23-4.11-3.15-4.11h-6.45l-7.82,26.47h7.13Z"/>
    <path class="cls-9" d="M290.91,242.76h39.22l-5.35,17.97h-18.38l-6.45,21.94h17.97l-5.21,17.69h-17.97l-6.86,23.18h19.06l-6.86,18.93h-38.54l29.35-99.71Z"/>
    <path class="cls-9" d="M297.08,367.43l54.04-124.67h29.49l-13.58,99.71h-20.57l3.15-17.97h-13.3l-17.69,42.93h-21.53ZM359.9,264.01l-17.97,45.53h10.01l7.95-45.53Z"/>
    <path class="cls-9" d="M438.07,242.76l-5.35,17.97h-13.99l-31,106.7h-20.71l31.68-106.7h-14.26l5.35-17.97h48.28Z"/>
    <path class="cls-9" d="M466.19,342.46h-20.57l12.34-42.11h-10.42l-19.89,67.07h-20.57l36.75-124.67h20.57l-11.66,39.91h10.42l11.8-39.91h20.57l-29.35,99.71Z"/>
    <path class="cls-9" d="M119.26,367.42l36.76-124.95h24.41l-11.33,38.94h8.43c1.55,0,2.81-.26,3.78-.8.97-.53,1.84-1.96,2.62-4.29l9.15-31.53c1.06-3.87-.24-5.81-3.92-5.81h-43.73l13.37-21.07h47.51c5.52,0,9.3,1.65,11.33,4.94,2.03,3.29,2.32,7.41.87,12.35l-14.67,49.11c-.68,2.23-1.94,4.24-3.78,6.03-1.84,1.8-4.65,2.69-8.43,2.69,3.49.29,5.59,1.99,6.32,5.09.73,3.1.46,6.78-.8,11.04l-12.5,42.43c-.87,3.1-2.16,5.67-3.85,7.7-1.7,2.03-3.61,3.66-5.74,4.87-2.13,1.21-4.43,2.06-6.9,2.54-2.47.49-4.96.73-7.48.73h-41.41ZM149.92,346.35h8.14c2.42,0,4.02-1.26,4.79-3.78l11.19-37.92c.39-1.36.34-2.42-.14-3.2-.49-.77-1.5-1.16-3.05-1.16h-7.26l-13.66,46.06Z"/>
  </g>
</svg>