<?xml version="1.0" encoding="UTF-8"?>
<svg id="Layer_1" data-name="Layer 1" xmlns="http://www.w3.org/2000/svg" viewBox="0 0 985.47 986.98">
  <defs>
    <style>
      .cls-1 {
        fill: #005625;
      }
    </style>
  </defs>
  <circle class="cls-1" cx="900.24" cy="900.36" r="85.22"/>
  <path class="cls-1" d="M138.12,954.36c-43.97-21.73-77.98-52.52-102.03-92.32C12.02,822.26,0,776.45,0,724.62c0-55.53,15.73-115.67,47.2-180.46l158.25,31.93c-11.11,22.21-19.91,44.42-26.38,66.63-6.48,22.21-9.71,44.9-9.71,68.02,0,40.74,11.1,71.03,33.32,90.92,22.21,19.91,55.05,29.85,98.56,29.85,48.11,0,87.21-15.03,117.3-45.11,30.06-30.06,50.66-76.11,61.77-138.12,6.46-37.93,10.86-71.49,13.19-100.64,2.29-29.15,4.38-62.22,6.25-99.25.91-22.21,2.29-45.57,4.16-70.1,1.84-24.51,4.62-47.89,8.33-70.1,15.72-90.68,46.26-145.75,91.62-165.19l1.39-8.33h-256.81c-20.37,0-35.87,5.34-46.5,15.97-10.65,10.65-18.28,29.84-22.9,57.61-6.49,37.96-11.59,76.35-15.27,115.22H102.73c14.79-49.98,26.37-99.01,34.7-147.14,10.17-56.44,16.65-115.22,19.43-176.3h699.62l-20.82,123.55h-20.82c-28.7,0-51.84,11.1-69.41,33.32-17.59,22.21-30.54,57.39-38.87,105.5-6.49,36.09-11.35,71.03-14.58,104.8-3.25,33.79-5.34,68.26-6.25,103.42-1.87,35.18-4.17,68.02-6.94,98.56-2.78,30.54-7.42,62.01-13.88,94.39-11.1,65.72-33.32,122.85-66.63,171.43-33.32,48.59-76.35,86.07-129.1,112.44-52.75,26.37-111.53,39.56-176.3,39.56-59.23,0-110.83-10.89-154.77-32.62Z"/>
</svg>