<?xml version="1.0" encoding="UTF-8"?>
<svg id="Layer_1" data-name="Layer 1" xmlns="http://www.w3.org/2000/svg" viewBox="0 0 1286.49 384.05">
  <defs>
    <style>
      .cls-1 {
        fill: #005625;
      }
    </style>
  </defs>
  <g>
    <path class="cls-1" d="M47.45,290.8c-15-7.63-26.65-18.26-34.97-31.9-8.32-13.63-12.48-29.18-12.48-46.62,0-12.54,2.18-25.9,6.55-40.08l47.85,8.59c-2.73,9.27-4.1,18.54-4.1,27.81,0,14.72,4.02,26.25,12.07,34.56,8.04,8.32,19.56,12.47,34.57,12.47s26.3-4.43,33.94-13.29c7.63-8.86,11.45-22.15,11.45-39.88,0-8.18-.41-16.22-1.23-24.13-.81-7.91-1.78-16.9-2.87-26.99-1.09-8.18-2.04-16.63-2.86-25.35-.81-8.73-1.23-16.63-1.23-23.72,0-13.36,1.57-23.93,4.7-31.69,3.13-7.77,7.98-13.15,14.52-16.16v-2.46h-78.11c-6.28,0-10.77,1.64-13.51,4.91-2.72,3.27-4.09,8.59-4.09,15.95,0,10.09.54,21.41,1.63,33.94H10.22c1.91-14.17,2.87-28.63,2.87-43.35,0-16.9-1.09-34.21-3.27-51.94h212.27v36.4h-6.95c-8.46,0-14.66,3.28-18.61,9.82-3.96,6.55-5.93,16.91-5.93,31.09,0,6.82.4,14.87,1.23,24.13.81,9.27,1.77,18.4,2.86,27.4,1.37,12,2.52,23.51,3.47,34.56.95,11.04,1.44,21.75,1.44,32.11,0,18.81-4.23,35.38-12.68,49.69-8.46,14.32-20.39,25.5-35.79,33.54-15.41,8.04-33.06,12.07-52.97,12.07-18.81,0-35.72-3.82-50.71-11.45Z"/>
    <path class="cls-1" d="M271.57,293.04c-9.55-5.86-16.84-14.32-21.88-25.35-5.05-11.04-7.43-24.06-7.15-39.06,0-9.82.13-18.06.4-24.75.28-6.68.55-14.79.83-24.33.54-9.82.81-18.95.81-27.4.26-5.73.14-10.09-.41-13.09-.55-3-1.91-5.32-4.09-6.95-2.19-1.64-5.73-2.46-10.64-2.46h-9.81v-36.4h79.75c-.55,15.82-1.37,34.09-2.46,54.8-1.09,25.09-1.91,46.62-2.46,64.62-.28,13.91,2.32,24.54,7.77,31.9,5.45,7.36,13.51,11.04,24.13,11.04,8.45,0,15.81-1.7,22.09-5.11,6.27-3.41,11.18-8.39,14.72-14.93,3.55-6.55,5.31-14.04,5.31-22.5v-61.76c0-8.18-1.15-13.83-3.47-16.97-2.32-3.13-6.48-4.7-12.48-4.7h-11.85v-36.4h84.25c-1.92,16.36-3.21,30.61-3.88,42.74-.69,12.13-.89,25.56-.61,40.29v63.39c0,8.18,1.15,13.84,3.47,16.97,2.32,3.14,6.34,4.7,12.07,4.7h20.6v36.4h-84.81v-33.95h-2.05c-4.64,11.45-12.82,20.66-24.53,27.61-11.73,6.95-24.95,10.43-39.67,10.43-13.09,0-24.41-2.93-33.95-8.8Z"/>
    <path class="cls-1" d="M494.88,297.75h-40.5v-36.4h11.45c6,0,10.16-1.57,12.48-4.7,2.32-3.13,3.47-8.8,3.47-16.97v-88.35c0-8.18-1.15-13.83-3.47-16.97-2.32-3.13-6.48-4.7-12.48-4.7h-11.45v-36.4h76.48v35.58h2.05c3.54-12.27,10.84-21.95,21.88-29.04,11.04-7.09,24.2-10.63,39.47-10.63,21.54,0,38.51,7.02,50.92,21.06,12.4,14.05,18.61,33.2,18.61,57.47v71.98c0,8.18,1.09,13.84,3.27,16.97,2.18,3.14,6.14,4.7,11.86,4.7h11.86v36.4h-105.94v-36.4h11.86c5.73,0,9.67-1.57,11.85-4.7,2.18-3.13,3.28-8.8,3.28-16.97v-57.67c0-14.45-3.42-25.83-10.22-34.16-6.83-8.31-16.1-12.47-27.82-12.47-7.92,0-14.87,1.78-20.86,5.32-6,3.55-10.7,8.59-14.11,15.13-3.41,6.55-5.11,14.05-5.11,22.5v61.35c0,8.18,1.15,13.84,3.47,16.97,2.32,3.14,6.34,4.7,12.07,4.7h11.45v36.4h-65.84Z"/>
    <path class="cls-1" d="M749.49,374.44c-13.49-6.41-24.21-14.93-32.11-25.56-7.91-10.64-11.85-22.23-11.85-34.77l47.04-9.4c-.28,11.45,3.67,20.86,11.85,28.22,8.18,7.37,18.67,11.04,31.5,11.04s23.24-3.88,31.29-11.65c8.03-7.77,12.07-17.93,12.07-30.47,0-18.81-.41-31.63-1.23-38.45h-2.05c-4.36,8.73-11.93,15.75-22.69,21.06-10.77,5.32-22.7,7.98-35.79,7.98-15.82,0-29.93-4.15-42.34-12.47-12.4-8.31-22.08-20.04-29.03-35.17-6.95-15.14-10.44-32.38-10.44-51.74s3.82-37.76,11.45-53.58c7.63-15.81,18.13-28.08,31.5-36.81,13.36-8.72,28.48-13.09,45.4-13.09,13.08,0,24.47,2.94,34.16,8.8,9.67,5.87,16.15,13.7,19.42,23.52h2.04v-28.63h74.44v36.4h-11.85c-5.73,0-9.68,1.57-11.86,4.7-2.19,3.14-3.27,8.8-3.27,16.97v8.18c0,17.18.54,39.13,1.63,65.85,1.37,28.09,2.05,50.04,2.05,65.84,0,19.08-3.96,35.58-11.86,49.49-7.92,13.9-19.16,24.6-33.74,32.11-14.59,7.49-31.84,11.25-51.74,11.25-15.82,0-30.47-3.21-43.97-9.61ZM817.37,246.42c6.68-4.77,11.73-11.66,15.14-20.66,3.41-9,5.11-19.63,5.11-31.9,0-13.09-1.7-24.2-5.11-33.33-3.41-9.13-8.38-16.16-14.92-21.06-6.55-4.91-14.46-7.36-23.73-7.36s-16.77,2.52-23.31,7.57c-6.55,5.05-11.53,12.13-14.93,21.26-3.41,9.14-5.11,19.98-5.11,32.52s1.7,22.9,5.11,31.9c3.41,9,8.38,15.95,14.93,20.86,6.54,4.91,14.17,7.36,22.9,7.36,9.26,0,17.24-2.38,23.92-7.15Z"/>
    <path class="cls-1" d="M946,56.03c-.83-3-2.39-5.11-4.71-6.34-2.32-1.23-5.51-1.84-9.61-1.84h-11.86V11.45L999.17,0v82.62-16.77,173.82c0,8.18,1.15,13.84,3.48,16.97,2.31,3.14,6.33,4.7,12.06,4.7h11.45v36.4h-106.34v-36.4h11.45c6,0,10.16-1.57,12.48-4.7,2.32-3.13,3.48-8.8,3.48-16.97V69.12c0-5.73-.41-10.08-1.23-13.09Z"/>
    <path class="cls-1" d="M1162.57,250.51c8.03-6.95,13.7-16.83,16.97-29.65l41.72,13.09c-5.73,21.26-16.84,37.97-33.34,50.1-16.5,12.13-36.46,18.2-59.92,18.2-19.9,0-37.42-4.37-52.55-13.09-15.14-8.72-26.86-21.27-35.17-37.63-8.33-16.36-12.48-35.31-12.48-56.85s4.15-40.28,12.48-56.23c8.31-15.95,20.1-28.22,35.37-36.81,15.27-8.59,33.27-12.88,53.99-12.88,17.99,0,34.01,3.68,48.05,11.04,14.05,7.37,24.95,17.73,32.73,31.09,7.77,13.36,11.65,28.77,11.65,46.22,0,9.55-1.37,19.23-4.09,29.04h-156.24v-28.63h129.24l-20.04,12.27c1.35-6.27,2.04-11.86,2.04-16.77,0-13.09-4.02-23.51-12.07-31.29-8.04-7.77-18.48-11.65-31.29-11.65-15.27,0-27,5.52-35.17,16.56-8.18,11.04-12.28,26.52-12.28,46.42v4.09c0,20.45,4.43,36.2,13.29,47.24,8.86,11.04,21.34,16.56,37.43,16.56,11.72,0,21.6-3.47,29.66-10.43Z"/>
  </g>
  <circle class="cls-1" cx="1262.3" cy="278.26" r="24.19"/>
</svg>